# xmcd
# Track frame offsets:
# 150
# 17255
# 30930
# 44222
# 58482
# 72157
# 97347
# 110837
# 130485
# 148047
# 164720
# 178425
# 191887
# 205790
#
# Disc length: 2927 seconds
# Revision: 0
# Processed by: cddbd v1.4PL0 Copyright (c) Steve Scherf et al.
# Submitted via: VisiTrax 2.9.3.171 - For more info visit www.synapsa.com
#
DISCID=e50b6d0e
DTITLE=Various Artist - Mr Music Country 7-00
DYEAR=1900
DGENRE=
TTITLE0=Lance Allen - Where Love Started Out
TTITLE1=Heather Myles - Who Did You Call Darlin'
TTITLE2=Larry Butler and Willie Nelson - My Sweet Love Ain't Around
TTITLE3=Rosie Flores with Radney Foster - Bring It On
TTITLE4=Marie Hedman - You Can't Take The Texas Out Of Me
TTITLE5=Byron Berline with Steve Spurgin and California - Faded Love
TTITLE6=The Laurel Canyon Ramblers - He Said If I Be Lifted Up
TTITLE7=Alison Krauss and Union Station - There Is a Reason
TTITLE8=Mason Mitchell with Lea Jane Berinati - Country Calypso - Country Regg
TTITLE8=ae
TTITLE9=Kathy Kallick - Send me Your Address From Heaven
TTITLE10=Barry and Holly Tashian - I'll Break Out Again Tonight
TTITLE11=Dale Watson - That's The Day (I Never Live To See)
TTITLE12=Claire Lynch - Thibodaux
TTITLE13=The Seldom Scene with Linda Ronstadt and Emmylou Harris - The Sweetest G
TTITLE13=ift
EXTD=
EXTT0=
EXTT1=
EXTT2=
EXTT3=
EXTT4=
EXTT5=
EXTT6=
EXTT7=
EXTT8=
EXTT9=
EXTT10=
EXTT11=
EXTT12=
EXTT13=
PLAYORDER=
